<svg id="Layer_1" data-name="Layer 1" xmlns="http://www.w3.org/2000/svg" viewBox="0 0 344 372"><defs><style>.cls-1{fill:#fff;}</style></defs><path class="cls-1" d="M355.5,156.5c-.42,0-.76.18-1.09.18a60.94,60.94,0,0,0,1.09-11.8c0-32.16-24-58.13-53.75-58.13-16.54,0-31.07,8.17-41,20.89-12.5-26.16-37.43-44.14-66.52-44.14C152.66,63.5,119,99.92,119,144.88a85.09,85.09,0,0,0,1.43,15.43C94.64,169.43,76,195.37,76,226.25,76,264.76,104.89,296,140.5,296h215c35.61,0,64.5-31.24,64.5-69.75S391.11,156.5,355.5,156.5ZM323.25,400.62c0,19.27,14.44,34.88,32.25,34.88s32.25-15.61,32.25-34.88-32.26-69.09-32.26-69.09S323.25,381.37,323.25,400.62Zm-215,0c0,19.26,14.44,34.88,32.25,34.88s32.25-15.61,32.25-34.88-32.26-69.09-32.26-69.09S108.25,381.37,108.25,400.62Zm107.5,0c0,19.27,14.44,34.88,32.25,34.88s32.25-15.61,32.25-34.88S248,331.53,248,331.53,215.75,381.37,215.75,400.62Z" transform="translate(-76 -63.5)"/></svg>