<svg id="Layer_1" data-name="Layer 1" xmlns="http://www.w3.org/2000/svg" viewBox="0 0 547.98 439"><defs><style>.cls-1{fill:#fff;}</style></defs><path class="cls-1" d="M118.76,225.34A95.2,95.2,0,0,1,214,130.08c45.15,0,82.74,31.26,93,73.24,16.38-7.9,33.53-12.27,51-12.27,3.95,0,7.85.32,11.73.7L390.49,162a10.64,10.64,0,0,0-6.85-16.53L308.43,131.7,294.71,55.75a10.64,10.64,0,0,0-16.55-6.84l-63.37,44-63.36-44a10.64,10.64,0,0,0-16.55,6.84L121.15,131.7,45.2,145.43A10.65,10.65,0,0,0,38.36,162l44,63.4-44,63.33a10.63,10.63,0,0,0,6.84,16.52l76,13.74,13.72,75.95a10.64,10.64,0,0,0,16.53,6.85l9.18-6.37a109.14,109.14,0,0,1,39.3-75.54C154,312.63,118.76,273.27,118.76,225.34Zm27.44,0a68.6,68.6,0,0,0,68.59,68.6,67.89,67.89,0,0,0,23.63-4.44A123,123,0,0,1,282.64,218a68.41,68.41,0,0,0-136.44,7.38ZM529.64,326.18c.11-1.72.64-3.21.64-4.82,0-30.34-24.65-54.88-54.1-54.88a54.5,54.5,0,0,0-29.27,8.58c-15.11-33.34-48.44-55.82-87.37-55.82-53,0-96,43-96,95.26,0,2.57.64,4.92.75,7.39-42.55,3.21-76.21,38.36-76.21,81.77C186.59,449.13,223.45,486,268.9,486H502.12a82.33,82.33,0,0,0,82.31-82.3A81.48,81.48,0,0,0,529.64,326.18Z" transform="translate(-36.45 -47)"/></svg>