<svg id="Layer_1" data-name="Layer 1" xmlns="http://www.w3.org/2000/svg" viewBox="0 0 512 512"><defs><style>.cls-1{fill:#fff;}</style></defs><path class="cls-1" d="M377,351.1H305.75l47.44-105.4a16,16,0,0,0-24.85-18.84l-153.6,128A16,16,0,0,0,185,383.14h71.25L208.8,488.54a16,16,0,0,0,4.91,19.31A11.66,11.66,0,0,0,223.4,512a16,16,0,0,0,10.25-3.72l153.6-128A16,16,0,0,0,392,362.56C389.8,356.2,383.8,351.1,377,351.1ZM441,128c-.62,0-1.12.25-1.62.25A77.56,77.56,0,0,0,441,112a79.88,79.88,0,0,0-80-80c-24.62,0-46.25,11.25-61,28.75C281.4,24.75,244.3,0,201,0A112,112,0,0,0,89,112a109.78,109.78,0,0,0,2.12,21.25A95.72,95.72,0,0,0,121,320h46.63l140.2-116.8A48,48,0,0,1,338.59,192a48.65,48.65,0,0,1,29,9.73,47.72,47.72,0,0,1,14.76,58L355.2,320H441a96,96,0,0,0,0-192Z" transform="translate(-25)"/></svg>