<svg id="Layer_1" data-name="Layer 1" xmlns="http://www.w3.org/2000/svg" viewBox="0 0 421.06 374.28"><defs><style>.cls-1{fill:#fff;}</style></defs><path class="cls-1" d="M240.55,68.86a70.55,70.55,0,0,1,64.39,40.71,58.32,58.32,0,0,1,41.52-17.32c28.29,0,51.24,20.09,57.31,46.78h1.17a46.79,46.79,0,0,1,0,93.57H170.37c-25.18,0-46.78-21-46.78-46.79S145.19,139,170.37,139A70.19,70.19,0,0,1,240.55,68.86ZM145.14,341a17.52,17.52,0,1,1-30.08-18l35.08-58.48c5-8.33,15.12-11,24-6.07,8.33,5,11,15.13,6.06,24Zm274.64-82.53c8.33,5,11,15.13,6.07,24L390.76,341a17.54,17.54,0,0,1-30.12-18l35.09-58.48c5-8.33,15.13-11,24-6.07ZM227,341a17.53,17.53,0,0,1-30.11-18L232,264.54c5-8.33,15.14-11,24.05-6.07,8.34,5,11,15.13,6.07,24Zm110.89-82.53c8.33,5,11,15.13,6.07,24L308.89,341a17.53,17.53,0,0,1-30.11-18l35.08-58.48c5-8.33,15.13-11,24.05-6.07Zm20.25,137.86c19.66,0,40.49-7.89,56.57-19.08h.08a23.28,23.28,0,0,1,28.65,1.25,92,92,0,0,0,37,18.42,23.45,23.45,0,0,1,17.47,28.14c-2.93,12.57-16.16,20.39-28.14,17.47-17.91-4.24-32.75-12.14-42.55-18.28-21.19,11.33-45,18.86-69.07,18.86-23.32,0-44.3-7.23-58.77-13.81-4.31-1.9-8.11-3.88-11.4-5.63-3.29,1.75-7.09,3.73-11.41,5.63-14.47,6.58-35.45,13.81-58.77,13.81-24.78,0-47.87-7.53-69.07-18.86-9.78,6.14-24.64,14-42.57,18.28a23.42,23.42,0,0,1-10.62-45.61,92.13,92.13,0,0,0,37-18.42,23.27,23.27,0,0,1,28.64-1.25h.08c16.15,11.19,36.91,19.08,56.57,19.08,20.11,0,40.21-7.75,56.65-19.08a23.3,23.3,0,0,1,27.05,0c15.79,11.33,36.55,19.08,56.65,19.08Z" transform="translate(-77.47 -68.86)"/></svg>