<svg id="Layer_1" data-name="Layer 1" xmlns="http://www.w3.org/2000/svg" viewBox="0 0 501.75 446"><defs><style>.cls-1{fill:#fff;}</style></defs><path class="cls-1" d="M254.74,158.18a53.45,53.45,0,0,0-41.55-20.13c-28.87,0-52.27,23.4-52.27,51.49a52.15,52.15,0,0,0,33.61,48.67,119.54,119.54,0,0,1,34.25-26C231.57,192.5,241.59,174,254.74,158.18ZM136.53,189.54c0-42.34,34.32-75.88,76.66-75.88a76.2,76.2,0,0,1,59.6,29,110.49,110.49,0,0,1,65.84-22h0l-44.95-10.8L281.92,44.53A9.22,9.22,0,0,0,272.86,37a9,9,0,0,0-5.19,1.64l-54.5,37.82L158.66,38.65A8.81,8.81,0,0,0,153.52,37a9.13,9.13,0,0,0-9,7.52l-11.79,65.29L67.4,121.62a9.14,9.14,0,0,0-7.52,9,9,9,0,0,0,1.64,5.18l37.81,54.51L61.52,244.85A8.81,8.81,0,0,0,59.88,250a9.11,9.11,0,0,0,7.52,9l65.29,11.8,11.79,65.29A9.13,9.13,0,0,0,158.69,342l17-11.77a96.15,96.15,0,0,1,5.4-70.52A76.69,76.69,0,0,1,136.53,189.54Zm368,43.9a69.57,69.57,0,0,0-68.39-57.06,68.58,68.58,0,0,0-29.83,7A83.51,83.51,0,0,0,255,232.13c0,.44.21,1,.21,1.42-31.9,5.64-56.72,34.47-56.72,67.49a69.61,69.61,0,0,0,69.69,69.68h223c39.28,0,70.47-30.4,70.47-69.68C561.63,267.59,537,239.27,504.57,233.44Zm8.28,165.16a20.85,20.85,0,0,0-17.4,9.31l-27.87,41.81a20.82,20.82,0,0,0-3.52,11.58c0,12.47,9.5,21.71,20.91,21.71a20.88,20.88,0,0,0,17.41-9.32l27.87-41.81a20.76,20.76,0,0,0,3.52-11.57C533.75,408.62,524.26,398.6,512.85,398.6Zm-83.63,0a20.89,20.89,0,0,0-17.4,9.31l-27.88,41.81a20.82,20.82,0,0,0-3.52,11.58c0,12.47,9.51,21.71,20.14,21.71A20.88,20.88,0,0,0,418,473.69l27.87-41.81a20.76,20.76,0,0,0,3.52-11.57A20.48,20.48,0,0,0,429.22,398.6Zm-83.62,0a20.86,20.86,0,0,0-17.4,9.31l-27.87,41.81a20.82,20.82,0,0,0-3.52,11.58c0,12.47,9.5,21.71,20.13,21.71a20.88,20.88,0,0,0,17.41-9.32l27.88-41.81a20.83,20.83,0,0,0,3.51-11.57A20.49,20.49,0,0,0,345.6,398.6Zm-83.63,0a20.83,20.83,0,0,0-17.39,9.31L216.7,449.72a20.82,20.82,0,0,0-3.52,11.58c0,12.47,9.5,21.71,20.13,21.71a20.88,20.88,0,0,0,17.41-9.32l27.87-41.81a20.76,20.76,0,0,0,3.52-11.57A20.48,20.48,0,0,0,262,398.6Z" transform="translate(-59.88 -37.01)"/></svg>