<svg id="Layer_1" data-name="Layer 1" xmlns="http://www.w3.org/2000/svg" viewBox="0 0 527.5 422"><defs><style>.cls-1{fill:#fff;}</style></defs><path class="cls-1" d="M161.69,307.59H290.35A104.25,104.25,0,0,0,359.5,334c26.54,0,50.48-10.1,69.14-26.38h49.55a92.31,92.31,0,1,0,0-184.62,91.34,91.34,0,0,0-41,10C416.45,95,378.29,70.22,333.12,70.22a118,118,0,0,0-85.71,36.88,118.61,118.61,0,1,0-85.72,200.49Zm-6.6,145.07H62c-10.14,0-19,8.9-19,19s8.9,20.52,19,20.52h93.05a19.78,19.78,0,1,0,0-39.56Zm395.63-79.13H115.53c-10.88,0-19.78,8.9-19.78,19s8.9,20.52,19,20.52H550c10.88,0,19.78-8.9,19.78-19S561.6,373.53,550.72,373.53ZM498,452.66H233.48c-10.14,0-19,8.9-19,19s8.9,20.52,19,20.52H498c10.88,0,19.78-8.9,19.78-19S508.85,452.66,498,452.66Z" transform="translate(-43 -70.22)"/></svg>