<svg id="Layer_1" data-name="Layer 1" xmlns="http://www.w3.org/2000/svg" viewBox="0 0 405.11 463"><defs><style>.cls-1{fill:#fff;}</style></defs><path class="cls-1" d="M447.15,381.34a29,29,0,0,1-39.64,10.42l-22.69-13.24,4.87,18.35a21.69,21.69,0,0,1-15.45,26.53,21.07,21.07,0,0,1-5.57.74,21.72,21.72,0,0,1-21-16.13l-16-60.52L277.5,315.87v63.75l43.75,44.2a21.73,21.73,0,0,1-30.89,30.57l-12.86-13v26.67a29,29,0,0,1-57.93,0V441.39l-12.86,13a21.71,21.71,0,0,1-30.89-30.52l43.75-44.2-.76-63.79-54.14,31.59-16,60.51a21.73,21.73,0,0,1-21,16.13,21,21,0,0,1-5.57-.73,21.7,21.7,0,0,1-15.45-26.53l4.86-18.35L88.8,391.73a24,24,0,0,1-13.8,4A28.94,28.94,0,0,1,60.36,341.8l23.48-13.7-18.39-5a21.7,21.7,0,1,1,11.38-41.88l59.6,16.19,54.71-31.92-54.71-31.92-59.6,16.19a22.51,22.51,0,0,1-5.7.76,21.69,21.69,0,0,1-5.68-42.63l18.39-5L60.36,189.18a28.94,28.94,0,1,1,29.22-50l22.69,13.24-4.87-18.34c-3.06-11.57,3.89-23.47,14.65-26.52,12.48-3.14,23.51,3.84,27.4,15.4l16,60.52,53.32,31.62V151.38l-42.95-44.24a21.72,21.72,0,0,1,30.92-30.52l12.86,13-.83-26.67a29,29,0,0,1,57.93,0V89.61l12.86-13a21.71,21.71,0,0,1,30.89,30.52l-43.75,44.2.76,63.79,54.14-31.59,16-60.51a21.73,21.73,0,0,1,42,11.13l-4.87,18.35,22.69-13.24a28.94,28.94,0,1,1,29.22,50l-23.48,13.7,18.39,5A21.7,21.7,0,0,1,426,250.56a22.51,22.51,0,0,1-5.7-.76l-60.4-16.22L306,265.5l54.68,31.9,59.64-16.16a21.71,21.71,0,1,1,11.39,41.9l-18.38,5,23.47,13.7A28.89,28.89,0,0,1,447.15,381.34Z" transform="translate(-46 -34)"/></svg>